Coordinates
version=1
nRows=4
nColumns=107
inDegrees=yes

Units are S.I. units (second, meters, Newtons, ...)
If the header above contains a line with 'inDegrees', this indicates whether rotational values are in degrees (yes) or radians (no).

endheader
time	sternoclavicular_r2	sternoclavicular_r3	unrotscap_r3	unrotscap_r2	acromioclavicular_r2	acromioclavicular_r3	acromioclavicular_r1	unrothum_r1	unrothum_r3	unrothum_r2	elv_angle	shoulder_elv	shoulder1_r2	shoulder_rot	elbow_flexion	pro_sup	deviation	flexion	proximal_distal_r1	proximal_distal_r3	cmc_flexion	cmc_abduction	mp_flexion	ip_flexion	mcp2_flexion	mcp2_abduction	pm2_flexion	md2_flexion	mcp3_flexion	mcp3_abduction	pm3_flexion	md3_flexion	mcp4_flexion	mcp4_abduction	pm4_flexion	md4_flexion	mcp5_flexion	mcp5_abduction	pm5_flexion	md5_flexion	bicpt_tx	bicpt_ty	bicpt_tz	bicpt2_tx	bicpt2_ty	bicpt2_tz	ptpt_tx	ptpt_ty	ptpt_tz	FCUpt_tx	FCUpt_ty	FCUpt_tz	EDCpt_tx	EDCpt_ty	EDCpt_tz	APLpt_tx	APLpt_ty	APLpt_tz	FPLpt_tx	FPLpt_ty	FPLpt_tz	FPLpt2_tx	FPLpt2_ty	FPLpt2_tz	PEC1pt2_tx	PEC1pt2_ty	PEC1pt2_tz	PEC1pt3_tx	PEC1pt3_ty	PEC1pt3_tz	PEC2pt2_tx	PEC2pt2_ty	PEC2pt2_tz	PEC2pt3_tx	PEC2pt3_ty	PEC2pt3_tz	PEC3pt2_tx	PEC3pt2_ty	PEC3pt2_tz	PEC3pt3_tx	PEC3pt3_ty	PEC3pt3_tz	DELT2pt2a_tx	DELT2pt2a_ty	DELT2pt2a_tz	DELT2pt2_tx	DELT2pt2_ty	DELT2pt2_tz	LAT1pt2_tx	LAT1pt2_ty	LAT1pt2_tz	LAT1pt3_tx	LAT1pt3_ty	LAT1pt3_tz	LAT2pt2_tx	LAT2pt2_ty	LAT2pt2_tz	LAT2pt3_tx	LAT2pt3_ty	LAT2pt3_tz	LAT3pt2_tx	LAT3pt2_ty	LAT3pt2_tz	LAT3pt3_tx	LAT3pt3_ty	LAT3pt3_tz
      1.23333333	     -0.30837228	      0.13061194	     -0.13061194	      0.30837228	     -0.06243911	      0.50461096	      0.22681915	     -0.22681915	     -0.50461096	      0.06243911	    103.17151611	     73.00987867	     -1.80068265	    -43.12909637	     31.85335125	     83.67781486	      0.30559899	     -0.04322178	      0.33830006	     -0.02161089	     24.89534764	     -6.52320546	    -25.07360576	     -3.59238529	      6.70181430	     10.13201087	     28.19072799	     22.45739420	     13.98993300	      3.16052016	     28.38728264	     25.99140289	      7.91505498	     -5.69859980	     36.03824349	     28.08982157	      1.95370815	    -13.86266213	     45.37332946	      5.37165893	      0.00095361	     -0.03125088	     -0.00488806	      0.01447378	     -0.01885312	     -0.00146993	      0.00136715	     -0.06889793	     -0.00679070	      0.01247207	     -0.18231561	      0.00002187	     -0.01004131	      0.00345141	     -0.00068411	      0.00004267	      0.00001707	      0.00008533	      0.00005461	      0.00016384	      0.00009216	      0.00000047	     -0.00027807	     -0.00033368	      0.00239310	      0.00839614	      0.00584080	     -0.00782829	      0.01890146	     -0.01792800	      0.00239310	      0.00839614	      0.00584080	      0.00052729	      0.01752239	     -0.00920736	      0.00382660	      0.00466899	      0.01566343	      0.00000000	      0.00712481	      0.00000000	     -0.00685482	     -0.03167820	     -0.00587080	      0.02354535	     -0.00122566	     -0.01480230	     -0.00085178	      0.01427750	     -0.00584080	      0.00235254	      0.02060503	     -0.01703565	     -0.00571911	      0.01237113	     -0.00523238	     -0.01192496	      0.02612133	     -0.02924454	     -0.02238972	      0.01383133	     -0.00701707	     -0.01484535	      0.03017744	     -0.03654553
      1.26666667	     -0.30891564	      0.13084209	     -0.13084209	      0.30891564	     -0.06254913	      0.50550010	      0.22721882	     -0.22721882	     -0.50550010	      0.06254913	    102.93514500	     73.13852480	     -1.79655720	    -42.20098856	     32.01796684	     83.50238807	      0.33145661	      0.08282955	      0.35990925	      0.04141478	     23.53344715	     -6.25492373	    -23.42248667	     -2.42035052	      2.68653409	      9.79168824	     30.99552808	      5.77100897	      9.80629761	      2.25554849	     25.53275439	     22.28616521	      3.45134241	     -5.61388437	     32.50995929	     27.00775953	     -3.10592243	    -13.83103053	     41.67238236	      5.35743846	      0.00095905	     -0.03126975	     -0.00489110	      0.01449100	     -0.01889784	     -0.00149941	      0.00138012	     -0.06888955	     -0.00677657	      0.01245204	     -0.18232144	      0.00001734	     -0.01002026	      0.00344191	     -0.00067870	     -0.00009049	     -0.00003620	     -0.00018098	     -0.00011583	     -0.00034749	     -0.00019546	      0.00000344	     -0.00028066	     -0.00033679	      0.00239732	      0.00841094	      0.00585109	     -0.00784208	      0.01893477	     -0.01795959	      0.00239732	      0.00841094	      0.00585109	      0.00052822	      0.01755326	     -0.00922359	      0.00383162	      0.00467722	      0.01567630	      0.00000000	      0.00715009	      0.00000000	     -0.00686690	     -0.03173402	     -0.00589181	      0.02329132	     -0.00119145	     -0.01423446	     -0.00085328	      0.01430266	     -0.00585109	      0.00235669	      0.02064133	     -0.01706567	     -0.00572919	      0.01239293	     -0.00524160	     -0.01194597	      0.02616736	     -0.02929607	     -0.02242917	      0.01385570	     -0.00702943	     -0.01487151	      0.03023062	     -0.03660993
      1.30000000	     -0.30870045	      0.13075094	     -0.13075094	      0.30870045	     -0.06250556	      0.50514797	      0.22706054	     -0.22706054	     -0.50514797	      0.06250556	    103.18524682	     73.08757659	     -1.80092230	    -42.94685184	     31.84155895	     83.53605226	      0.32372457	      0.10014350	      0.35356225	      0.05007175	     23.61739899	     -5.59353064	    -24.16537315	     -2.53509528	      0.85933145	      9.35210158	     28.75858287	      4.85943188	      7.28237794	      1.29339963	     22.51330479	     20.85103031	      0.73215480	     -5.73196051	     29.22780016	     25.63325871	     -6.60073940	    -13.85236076	     38.46720990	      5.29383077	      0.00095322	     -0.03124953	     -0.00488784	      0.01448766	     -0.01884992	     -0.00149373	      0.00137763	     -0.06889116	     -0.00677928	      0.01245589	     -0.18232031	      0.00001822	     -0.01002430	      0.00344374	     -0.00067975	     -0.00011086	     -0.00004434	     -0.00022172	     -0.00014190	     -0.00042570	     -0.00023946	      0.00000325	     -0.00028056	     -0.00033667	      0.00239565	      0.00840508	      0.00584701	     -0.00783662	      0.01892158	     -0.01794708	      0.00239565	      0.00840508	      0.00584701	      0.00052786	      0.01754103	     -0.00921716	      0.00382963	      0.00467396	      0.01567121	      0.00000000	      0.00714007	      0.00000000	     -0.00686212	     -0.03171191	     -0.00588348	      0.02349633	     -0.00121893	     -0.01469031	     -0.00085269	      0.01429269	     -0.00584701	      0.00235505	      0.02062696	     -0.01705378	     -0.00572520	      0.01238429	     -0.00523795	     -0.01193765	      0.02614913	     -0.02927566	     -0.02241354	      0.01384605	     -0.00702453	     -0.01486115	      0.03020956	     -0.03658442
      1.33333333	     -0.30814733	      0.13051667	     -0.13051667	      0.30814733	     -0.06239357	      0.50424286	      0.22665369	     -0.22665369	     -0.50424286	      0.06239357	    103.49894888	     72.95662004	     -1.80639743	    -44.05539932	     31.76224326	     83.90738023	      0.31238011	      0.09641258	      0.34407305	      0.04820629	     23.06137973	     -4.74267882	    -23.97588083	     -0.57141531	      0.89649563	      8.90022307	     25.22086936	      4.68403583	      6.16145862	      0.53549855	     19.98295006	     18.74227243	     -0.15228437	     -5.90153939	     25.76612493	     23.68772688	     -7.55952863	    -13.86468759	     32.97313444	      5.33143531	      0.00095060	     -0.03124044	     -0.00488638	      0.01445121	     -0.01882837	     -0.00143133	      0.00135019	     -0.06890890	     -0.00680919	      0.01249828	     -0.18230798	      0.00002781	     -0.01006886	      0.00346385	     -0.00069121	     -0.00010640	     -0.00004256	     -0.00021281	     -0.00013620	     -0.00040859	     -0.00022983	      0.00000450	     -0.00028110	     -0.00033732	      0.00239136	      0.00839002	      0.00583653	     -0.00782258	      0.01888767	     -0.01791492	      0.00239136	      0.00839002	      0.00583653	      0.00052691	      0.01750960	     -0.00920065	      0.00382452	      0.00466558	      0.01565809	      0.00000000	      0.00711435	      0.00000000	     -0.00684982	     -0.03165509	     -0.00586211	      0.02378770	     -0.00125992	     -0.01537520	     -0.00085116	      0.01426708	     -0.00583653	      0.00235083	      0.02059000	     -0.01702323	     -0.00571494	      0.01236210	     -0.00522856	     -0.01191626	      0.02610228	     -0.02922320	     -0.02237338	      0.01382124	     -0.00701195	     -0.01483453	      0.03015543	     -0.03651887
